<?xml version="1.0" encoding="UTF-8" standalone="no"?>
<!-- Created with Inkscape (http://www.inkscape.org/) -->

<svg
   width="33.866665mm"
   height="33.866665mm"
   viewBox="0 0 33.866665 33.866665"
   version="1.1"
   id="svg5"
   inkscape:version="1.1 (c68e22c387, 2021-05-23)"
   sodipodi:docname="icon.svg"
   xmlns:inkscape="http://www.inkscape.org/namespaces/inkscape"
   xmlns:sodipodi="http://sodipodi.sourceforge.net/DTD/sodipodi-0.dtd"
   xmlns="http://www.w3.org/2000/svg"
   xmlns:svg="http://www.w3.org/2000/svg">
  <sodipodi:namedview
     id="namedview7"
     pagecolor="#ffffff"
     bordercolor="#666666"
     borderopacity="1.0"
     inkscape:pageshadow="2"
     inkscape:pageopacity="0.0"
     inkscape:pagecheckerboard="0"
     inkscape:document-units="mm"
     showgrid="false"
     inkscape:zoom="1.0482005"
     inkscape:cx="169.33783"
     inkscape:cy="153.11956"
     inkscape:window-width="1366"
     inkscape:window-height="705"
     inkscape:window-x="-8"
     inkscape:window-y="-8"
     inkscape:window-maximized="1"
     inkscape:current-layer="layer1"
     fit-margin-top="0"
     fit-margin-left="0"
     fit-margin-right="0"
     fit-margin-bottom="0" />
  <defs
     id="defs2">
    <marker
       style="overflow:visible"
       id="Arrow1Lstart"
       refX="0"
       refY="0"
       orient="auto"
       inkscape:stockid="Arrow1Lstart"
       inkscape:isstock="true">
      <path
         transform="matrix(0.8,0,0,0.8,10,0)"
         style="fill:context-stroke;fill-rule:evenodd;stroke:context-stroke;stroke-width:1pt"
         d="M 0,0 5,-5 -12.5,0 5,5 Z"
         id="path2337" />
    </marker>
  </defs>
  <g
     inkscape:label="Camada 1"
     inkscape:groupmode="layer"
     id="layer1"
     transform="translate(-67.395264,-48.905739)">
    <rect
       style="opacity:1;fill:#007a55;fill-opacity:1;stroke:none;stroke-width:0.076"
       id="rect879"
       width="33.866665"
       height="33.866665"
       x="67.395264"
       y="48.905739"
       ry="3.7862508" />
    <g
       id="g3413"
       transform="matrix(1.3803557,0,0,1.3803557,-32.013803,-24.891108)">
      <g
         style="fill:#ffffff;fill-opacity:1;stroke:#ffffff;stroke-width:1.6414;stroke-miterlimit:4;stroke-dasharray:none;stroke-opacity:1"
         id="g855"
         transform="matrix(0.86670319,0,0,0.96356815,72.265496,52.170379)">
        <path
           stroke-linecap="round"
           stroke-linejoin="round"
           d="m 18,18.72 a 9.094,9.094 0 0 0 3.741,-0.479 3,3 0 0 0 -4.682,-2.72 m 0.94,3.198 L 18,18.75 c 0,0.225 -0.012,0.447 -0.037,0.666 A 11.944,11.944 0 0 1 12,21 C 9.83,21 7.793,20.424 6.037,19.416 A 6.062,6.062 0 0 1 6,18.719 m 12,0 a 5.971,5.971 0 0 0 -0.941,-3.197 m 0,0 A 5.995,5.995 0 0 0 12,12.75 5.995,5.995 0 0 0 6.942,15.522 m 0,0 a 3,3 0 0 0 -4.681,2.72 8.986,8.986 0 0 0 3.74,0.477 m 0.94,-3.197 a 5.971,5.971 0 0 0 -0.94,3.197 M 15,6.75 a 3,3 0 1 1 -6,0 3,3 0 0 1 6,0 z m 6,3 a 2.25,2.25 0 1 1 -4.5,0 2.25,2.25 0 0 1 4.5,0 z m -13.5,0 a 2.25,2.25 0 1 1 -4.5,0 2.25,2.25 0 0 1 4.5,0 z"
           id="path846"
           style="fill:#ffffff;fill-opacity:1;stroke:#ffffff;stroke-width:1.6414;stroke-linecap:square;stroke-linejoin:round;stroke-miterlimit:4;stroke-dasharray:none;stroke-opacity:1;paint-order:normal" />
      </g>
      <rect
         style="opacity:1;fill:#ffffff;fill-opacity:1;stroke:#ffffff;stroke-width:1.5;stroke-linecap:square;stroke-linejoin:miter;stroke-miterlimit:4;stroke-dasharray:none;stroke-opacity:1;paint-order:normal"
         id="rect3148"
         width="9.5848713"
         height="3.0814908"
         x="78.281281"
         y="67.126884"
         ry="1.5407454" />
      <path
         stroke-linecap="round"
         stroke-linejoin="round"
         d="m 83.301747,74.376027 a 34.384388,41.879638 0 0 1 9.042287,1.46478 c 0.416139,0.13804 0.831705,-0.23844 0.831705,-0.76411 v -0.70067 m -9.015384,-9.934823 v 0.522886 a 0.42930399,0.52288544 0 0 1 -0.429304,0.522885 h -0.429304 m 0,0 v -0.261443 c 0,-0.432949 0.288492,-0.784328 0.643956,-0.784328 h 9.65934 M 83.301747,65.486975 V 71.7616 m 10.303296,-7.320396 v 0.522886 c 0,0.288632 0.192328,0.522885 0.429304,0.522885 h 0.429304 m -0.858608,-1.045771 h 0.214652 c 0.355464,0 0.643956,0.351379 0.643956,0.784328 v 6.797511 c 0,0.432949 -0.288492,0.784328 -0.643956,0.784328 H 93.605043 M 94.463651,71.7616 h -0.429304 a 0.42930399,0.52288544 0 0 0 -0.429304,0.522886 v 0.522885 m 0,0 h -9.444688 m 0,0 H 83.945703 A 0.643956,0.78432817 0 0 1 83.301747,72.023043 V 71.7616 m 0.858608,1.045771 V 72.284486 A 0.42930399,0.52288544 0 0 0 83.731051,71.7616 h -0.429304 m 7.298168,-3.137312 a 1.717216,2.0915418 0 1 1 -3.434432,0 1.717216,2.0915418 0 0 1 3.434432,0 z m 1.717216,0 h 0.0046 v 0.0056 h -0.0046 z m -6.868864,0 h 0.0046 v 0.0056 h -0.0046 z"
         id="path824"
         style="fill:#363e51;fill-opacity:1;stroke:#363e51;stroke-width:1.2;stroke-miterlimit:4;stroke-dasharray:none;stroke-opacity:1" />
    </g>
  </g>
</svg>
